<svg xmlns="http://www.w3.org/2000/svg" width="20" height="20" fill="none" viewBox="0 0 32 32"><path fill="#0C111F" d="M16.656 1.029c1.637-.025 3.262-.012 4.886-.025.054 2.031.878 3.859 2.189 5.213 1.411 1.271 3.247 2.095 5.271 2.235v5.036a8.33 8.33 0 0 1-5.234-1.542c-1.655-.967-2.944-2.449-3.665-4.205l-.019-.048-.021 11.583c-.038 5.748-4.655 10.392-10.403 10.434a7.257 7.257 0 0 1-7.312-3.177C2.733 22.697 1.483 19.879 1.477 16.77c.038-5.748 4.655-10.392 10.403-10.434 1.035 0 2.031.158 2.969.449V11.82a5.512 5.512 0 0 0-2.199-.311c-3.033 0-5.493 2.46-5.493 5.493s2.46 5.493 5.493 5.493 5.493-2.46 5.493-5.493V1.029h4.513z"/></svg>
